<?xml version="1.0" encoding="UTF-8"?>
<svg width="92px" height="92px" viewBox="0 0 92 92" version="1.1" xmlns="http://www.w3.org/2000/svg" xmlns:xlink="http://www.w3.org/1999/xlink">
    <!-- Generator: Sketch 60.1 (88133) - https://sketch.com -->
    <title>Path</title>
    <desc>Created with Sketch.</desc>
    <g id="Page-1" stroke="none" stroke-width="1" fill="none" fill-rule="evenodd">
        <path d="M89.055,75.23 C92.8636,79.0386 92.8636,85.1402 89.055,88.894 C87.1527,90.7963 84.6878,91.7495 82.223,91.7495 C79.7582,91.7495 77.2933,90.79638 75.391,88.894 L46.161,59.664 L16.931,88.894 C15.0287,90.7963 12.5638,91.7495 10.099,91.7495 C7.5795,91.7495 5.1146,90.79638 3.2123,88.894 C-0.5416,85.1401 -0.5416,79.0385 3.2123,75.23 L32.4423,46 L3.2123,16.77 C-0.5416,12.9614 -0.5416,6.8598 3.2123,3.106 C7.0209,-0.7026 13.1225,-0.7026 16.9313,3.106 L46.1613,32.336 L75.3913,3.106 C79.1452,-0.7026 85.3015,-0.7026 89.0553,3.106 C92.8639,6.8599 92.8639,12.9615 89.0553,16.77 L59.8253,46 L89.055,75.23 Z" id="Path" fill="#000000" fill-rule="nonzero"></path>
    </g>
</svg>