<?xml version="1.0" encoding="UTF-8"?>
<svg width="506px" height="560px" viewBox="0 0 506 560" version="1.1" xmlns="http://www.w3.org/2000/svg" xmlns:xlink="http://www.w3.org/1999/xlink">
    <!-- Generator: Sketch 60.1 (88133) - https://sketch.com -->
    <title>Group</title>
    <desc>Created with Sketch.</desc>
    <g id="Page-1" stroke="none" stroke-width="1" fill="none" fill-rule="evenodd">
        <g id="noun-bin-2956146" fill="#000000" fill-rule="nonzero">
            <g id="Group" transform="translate(0.223400, 0.000000)">
                <path d="M159.4266,425.39 C164.5282,425.39 169.4227,423.3822 173.0556,419.8002 C176.6884,416.2182 178.7665,411.351 178.8368,406.2492 L178.8368,250.3392 C178.8368,243.4056 175.1376,236.9952 169.1298,233.5302 C163.1259,230.0614 155.7278,230.0614 149.7198,233.5302 C143.7159,236.995 140.0167,243.4052 140.0167,250.3392 L140.0167,406.2492 C140.087012,411.3508 142.1651,416.218 145.7979,419.8002 C149.4268,423.3822 154.3252,425.39 159.4269,425.39 L159.4266,425.39 Z" id="Path"></path>
                <path d="M252.7766,425.39 C257.8782,425.39 262.7727,423.3822 266.4056,419.8002 C270.0384,416.2182 272.1165,411.351 272.1868,406.2492 L272.1868,250.3392 C272.1868,243.4056 268.4876,236.9952 262.4798,233.5302 C256.4759,230.0614 249.0778,230.0614 243.0738,233.5302 C237.066,236.995 233.3668,243.4052 233.3668,250.3392 L233.3668,406.2492 C233.437112,411.3508 235.5152,416.218 239.148,419.8002 C242.7808,423.3822 247.6753,425.39 252.777,425.39 L252.7766,425.39 Z" id="Path"></path>
                <path d="M346.1266,425.39 C351.2282,425.39 356.1266,423.3822 359.7556,419.8002 C363.3884,416.2182 365.4665,411.351 365.5368,406.2492 L365.5368,250.3392 C365.5368,243.4056 361.8376,236.9952 355.8337,233.5302 C349.8259,230.0614 342.4277,230.0614 336.4237,233.5302 C330.4159,236.995 326.7167,243.4052 326.7167,250.3392 L326.7167,406.2492 C326.787012,411.3508 328.8651,416.218 332.4979,419.8002 C336.1307,423.3822 341.0252,425.39 346.1269,425.39 L346.1266,425.39 Z" id="Path"></path>
                <path d="M486.1466,93.98 L361.9266,93.98 L345.9466,40.445 C342.4075,28.812 335.2436,18.613 325.4976,11.336 C315.7554,4.0626 303.9386,0.09 291.7786,0 L213.8686,0 C201.7086,0.089844 189.8956,4.0625 180.1496,11.336 C170.4074,18.6133 163.2396,28.813 159.7006,40.445 L143.7206,93.98 L19.4106,93.98 C12.477,93.98 6.0666,97.6792 2.6016,103.6831 C-0.8672,109.6909 -0.8672,117.0891 2.6016,123.0931 C6.0664,129.1009 12.4766,132.8001 19.4106,132.8001 L42.5236,132.8001 L42.5236,506.4601 C42.61735,520.6051 48.297,534.1361 58.3246,544.1121 C68.3516,554.0887 81.9146,559.7021 96.0586,559.7251 L410.1386,559.7251 C424.3296,559.701662 437.9316,554.0532 447.9666,544.0181 C458.0016,533.9831 463.6506,520.3811 463.6736,506.1901 L463.6736,132.1601 L486.1536,132.1601 C491.302,132.1601 496.2396,130.1171 499.8806,126.4765 C503.5173,122.8359 505.5642,117.8984 505.5642,112.7495 C505.540762,107.6675 503.4704,102.8081 499.8142,99.2725 C496.1619,95.7373 491.2361,93.8272 486.1542,93.9717 L486.1466,93.98 Z M197.2566,51.55 L197.252693,51.55 C198.358193,47.9641 200.549593,44.8117 203.526093,42.5305 C206.506593,40.2493 210.119893,38.9524 213.866093,38.8196 L292.319093,38.8196 C296.154993,38.78835 299.893293,40.0266 302.948093,42.3469 C306.002793,44.6672 308.201993,47.9367 309.201993,51.6399 L321.658993,93.9799 L183.798993,93.9799 L197.2566,51.55 Z M424.8466,510.44 L423.4911,510.44 L423.495006,510.44 C422.483306,513.3423 420.608306,515.8619 418.123906,517.6705 C415.639506,519.4791 412.663006,520.483 409.588706,520.5494 L96.048706,520.5494 C92.111206,520.479087 88.357306,518.8736 85.591706,516.0728 C82.826106,513.272 81.263606,509.5025 81.240106,505.5648 L81.240106,132.1748 L424.840106,132.1748 L424.8466,510.44 Z" id="Shape"></path>
            </g>
        </g>
    </g>
</svg>